Patient4_TMGait_0pt8_01_left_11_EMG.mot
version=1
nRows=20
nColumns=33
inDegrees=no
endheader
time	1LAddLong	2LGlutMax	3LGlutMed	4LIliopsoas	5LSemiMemb	6LBicFemLong	7LRecFem	8LVastMed	9LVastLat	10LGasMed	11LTibAnt	12lTibPost	13LPeroneusLong	14LSol	15LExtDigLong	16LFlexDigLong	17RAddLong	18RGlutMax	19RGlutMed	20RIliopsoas	21RSemiMemb	22RBicFemLong	23RRecFem	24RVastMed	25RVastLat	26RGasMed	27RTibAnt	28RTibPost	29RPeroneusLong	30RSol	31RExtDigLong	32RFlexDigLong
11.48	0.005188	-1.7146	-0.049286	0.012512	-0.010986	0.021515	0.077515	0.027466	-0.12466	0.08728	-0.001221	0.013733	-0.011749	0.068817	-0.11383	-0.06546	-0.014801	0.59219	-0.47318	-0.038147	-0.000458	-0.10269	-0.5368	-0.14618	0.003967	0.006409	0.28641	-0.001984	-1.3509	-0.035706	-0.002594	0.003204
11.481	0.006866	-1.8123	-0.039215	0.043793	-0.007019	0.013885	0.085754	0.021667	-0.11795	0.081482	0.013123	0.011292	0.001526	0.16159	-0.19608	0.044556	-0.002747	0.62286	-0.59036	-0.063934	-0.032959	0.046692	-0.26367	0.1387	0.13611	0.00061	0.28748	0.000305	-1.445	-0.003052	0	0.001984
11.482	0.004425	-1.893	-0.03479	0.07782	-0.005951	0.04303	0.11231	0.027771	-0.12863	0.050354	0.044556	0.021362	0.020294	0.16586	-0.1593	0.039978	0.001373	0.69748	-0.66162	-0.028839	-0.046692	-0.007935	0.064545	0.33951	0.18051	-0.006561	0.27268	0.000763	-0.065002	0.062256	-0.002899	0.006104
11.483	-0.001526	-1.996	-0.012207	0.049286	-0.001373	0.0354	0.13214	0.024872	-0.12299	0.033722	-0.023651	0.006104	-0.000458	0.19379	-0.056915	0.041809	0.016937	0.71014	-0.2771	-0.011139	-0.056152	-0.23239	0.4042	0.38223	0.080414	-0.00473	0.13916	-0.002289	2.1132	0.11063	-0.003204	0.005035
11.484	0.000305	-2.009	-0.011139	0.011292	-0.006714	0.018768	0.14572	0.026855	-0.11963	0.043335	-0.043335	0.014954	-0.00885	0.13184	0.066681	0.073547	0.007019	0.76874	-0.023651	-0.039673	-0.075989	-0.2713	0.38788	0.20035	0.078735	-0.009003	0.12604	0.001373	1.3042	0.022736	-0.00473	0.002136
11.485	-0.001068	-1.9846	-0.020294	-0.007629	-0.011139	0.005035	0.12711	0.03067	-0.13245	0.02533	0.002136	0.011902	-0.018311	-0.022583	0.093536	0.010834	0.010986	0.73547	-0.57037	-0.048676	-0.10422	-0.19424	0.52567	0.13504	0.016479	0.001984	-0.20538	-0.004578	-0.09964	-0.037231	-0.002136	0.010071
11.486	-0.000305	-1.8858	-0.019226	0.010223	-0.007782	0.004578	0.12695	0.02533	-0.13275	0.002289	-0.039673	0.018311	0.002289	-0.1442	0.08255	-0.029449	-0.014191	0.67688	-0.40176	-0.048981	-0.077209	-0.091858	0.41534	0.19562	0.0383	0.00824	-0.2446	-0.00061	-0.1535	-0.1622	-0.00351	0.001221
11.487	0.000305	-1.7868	-0.018463	-0.003967	-0.006256	-0.005646	0.14069	0.029297	-0.13489	0.012817	-0.029297	0.013275	-0.041351	-0.15808	0.06073	-0.33676	-0.017548	0.71945	-0.80124	-0.003662	-0.081177	-0.068359	-0.021362	0.15991	-0.019989	0.00061	-0.057373	-0.003357	0.15045	-0.18906	-0.007629	0.007172
11.488	-0.003204	-1.703	-0.014801	0.011749	-0.002289	-0.013123	0.11902	0.021973	-0.12863	-0.004425	0.033264	0.016785	-0.07782	-0.22079	0.048828	-0.11719	-0.006714	0.70282	-0.18768	-0.019989	-0.000763	-0.082855	-0.31052	-0.11978	-0.072479	-0.007629	0.16998	-0.006409	0.31036	-0.05127	-0.003662	0.002441
11.489	0.004272	-1.5924	-0.035553	0.008087	-0.002747	-0.018921	0.12039	0.022888	-0.11963	0.032196	0.059052	0.017395	-0.089722	-0.30228	0.12329	0.93353	0.020752	0.64774	0.79285	-0.032959	0.10162	-0.017853	-0.41184	-0.25497	-0.0354	-0.003662	0.31616	-0.001221	-0.11459	-0.079803	-0.00412	-0.005493
11.49	-0.013275	-1.4902	-0.02243	0.020599	-0.00473	-0.023956	0.15198	0.016327	-0.13123	0.008392	-0.00885	0.015411	-0.028076	-0.30456	0.23804	-0.22064	0.015564	0.62118	0.60974	-0.038452	0.18143	0.30273	-0.6604	-0.10315	0.14969	-0.006561	0.1236	-0.000458	-0.33325	-0.000458	-0.003662	0.002289
11.491	-0.007324	-1.3533	-0.024109	0.005646	-0.007324	-0.01236	0.1535	0.006409	-0.12772	-0.047302	-0.020447	0.010529	0.015106	-0.11444	-0.043335	0.074158	-0.025482	0.68466	0.1918	-0.036011	0.073853	0.20966	-0.94147	-0.031433	0.2449	-0.006714	-0.058289	-0.002136	-0.12344	-0.069427	-0.001678	-0.000916
11.492	-0.00473	-1.2529	-0.027466	0.010376	-0.015564	-0.003357	0.12848	0.014343	-0.13184	-0.085602	0.067596	0.010834	0.05127	0.04364	-0.074158	-0.085144	-0.027771	0.70587	-0.22705	-0.02533	-0.028687	0.036011	-0.52231	-0.17868	0.55252	-0.009155	-0.048676	-0.005341	-0.31143	-0.090332	-0.001373	0.001373
11.493	0.009308	-1.0619	-0.028687	0.034485	-0.004425	0.00061	0.12589	0.013733	-0.15732	-0.061646	0.067902	0.016785	0.056458	0.19211	0.007324	0.2739	-0.022278	0.6192	-0.2272	-0.14465	-0.20813	-0.015259	-0.088043	-0.1091	0.56732	-0.010681	-0.012665	0.000763	-0.32822	0.034485	-0.003052	-0.00351
11.494	0.020294	-0.90408	-0.026093	0.037842	-0.007935	0.016327	0.20538	0.014038	-0.15381	-0.084534	0.11795	0.017395	0.00946	0.28473	0.07309	-0.049286	-0.006409	0.65735	-0.23804	-0.28458	-0.16739	0.005035	0.011444	0.056915	0.61539	-0.012207	0.035095	-0.001984	-0.065155	0.12177	-0.003052	0.005188
11.495	0.023346	-0.70908	-0.029144	0.038757	-0.007172	0.015869	0.20676	0.013123	-0.16785	-0.054169	0.067139	0.011139	0.020599	0.29434	-0.068207	-0.019684	-0.01236	0.70038	-0.25269	-0.24704	-0.10315	-0.00885	-0.07019	0.14557	0.55557	-0.017548	0.15427	-0.003052	0.032043	0.062103	-0.002136	0.001221
11.496	0.018463	-0.50095	-0.053406	-0.012665	-0.004883	0.013428	0.19592	0.014496	-0.17059	0.037537	-0.041809	0.024719	0.045319	0.23972	0.015869	0.001221	-0.009155	0.7695	-0.65628	-0.07309	-0.065155	-0.011749	-0.11231	0.18906	0.30731	-0.002594	-0.099182	-0.001068	0.17777	-0.093994	-0.001221	0.00412
11.497	0.012665	-0.31586	-0.040283	-0.027161	-0.010223	0.032043	0.18875	0.016174	-0.18082	0.072937	-0.11688	0.023346	0.069733	0.13763	0.42358	-0.001526	-0.0177	0.75928	-0.50079	0.095215	0.001831	-0.038452	-0.22156	0.19104	0.23071	-0.005493	-0.33356	0.000305	0.20721	-0.24216	-0.000153	0.006104
11.498	0.006256	-0.10239	-0.053558	-0.016174	-0.008087	0.011292	0.15564	0.014038	-0.17883	0.084076	0.007629	0.014954	0.039978	0.05127	-0.11902	-0.071259	-0.02655	0.74371	0.008545	0.21072	0.034637	-0.049133	-0.24399	0.039978	-0.030975	-0.000763	-0.24902	-0.002594	-0.014954	-0.17517	0	0.000916
11.499	0.010223	0.059662	-0.04364	-0.010223	-0.002594	0.000458	0.14206	0.017853	-0.18021	0.028381	0.014343	0.007019	0.035858	0.075073	-0.083618	-0.69366	-0.007935	0.71564	0.34195	0.27069	0.004425	-0.057526	-0.1712	-0.1564	-0.17746	-0.004272	-0.019836	-0.00412	-0.19989	0.070343	-0.000458	0.005646
